<svg xmlns="http://www.w3.org/2000/svg" xmlns:xlink="http://www.w3.org/1999/xlink" width="182" height="20" viewBox="0 0 182 20"><clipPath id="r"><rect width="182" height="20" fill="#fff" rx="3"/></clipPath><g clip-path="url(#r)"><rect width="76" height="20" fill="#555"/><rect width="106" height="20" x="76" fill="#86c440"/></g><g fill="#fff" font-family="Verdana,Geneva,DejaVu Sans,sans-serif" font-size="110" text-anchor="middle" text-rendering="geometricPrecision"><text x="385" y="140" fill="#fff" textLength="630" transform="scale(.1)">powered by</text><text x="1180" y="140" fill="#222" textLength="730" transform="scale(.1)">spatial maths</text></g><g id="Layer_2" data-name="Layer 2"><g id="Layer_1-2" data-name="Layer 1"><path fill="#222" fill-opacity=".32" stroke="#222" stroke-miterlimit="10" d="M173.56,12.21l3.83,1-3.25,2.36L170,14.34Z" class="cls-6" transform="translate(-8.5 0)"/><path fill="#222" stroke="#222" stroke-opacity=".18" stroke-width=".77" d="M170.09,14.33l3.48-2.09,3.75,1-3.18,2.31Z" class="cls-7" transform="translate(-8.5 0)"/><path fill="#222" stroke="#222" d="M173.56,12.21l3.83,1-3.25,2.37L170,14.34Z" class="cls-6" transform="translate(-8.5 0)"/><path fill="#222" stroke="#222" stroke-opacity=".18" stroke-width="1.55" d="M170.17,14.32l3.4-2.05,3.67.94-3.11,2.27Z" class="cls-8" transform="translate(-8.5 0)"/><path fill="#222" stroke="#222" stroke-linecap="round" stroke-width="1.2" d="M180.21,8.32l-.59.45c-.7.53,0,.38-1,1.12l-.28.2-4.64,3.52" class="cls-9" transform="translate(-8.5 0)"/><path fill="#222" stroke="#222" stroke-linecap="round" stroke-width="1.2" d="M173.44,3.65V4.4c0,.87.3.22.3,1.44v7.79" class="cls-9" transform="translate(-8.5 0)"/><path fill="#222" stroke="#222" stroke-linecap="round" stroke-width="1.2" d="M183.39,15.87l-.72-.18c-.84-.22-.29.24-1.47-.07l-.26-.07-7.22-1.9" class="cls-9" transform="translate(-8.5 0)"/></g></g></svg>